<svg xmlns="http://www.w3.org/2000/svg" version="1.1" xmlns:xlink="http://www.w3.org/1999/xlink" xmlns:svgjs="http://svgjs.dev/svgjs" width="1500" height="454" viewBox="0 0 1500 454"><g transform="matrix(1,0,0,1,-0.9090909090909918,-0.13644853990447814)"><svg viewBox="0 0 396 120" data-background-color="#ffffff" preserveAspectRatio="xMidYMid meet" height="454" width="1500" xmlns="http://www.w3.org/2000/svg" xmlns:xlink="http://www.w3.org/1999/xlink"><g id="tight-bounds" transform="matrix(1,0,0,1,0.2400000000000091,0.036065693366822416)"><svg viewBox="0 0 395.52 119.92786861326633" height="119.92786861326633" width="395.52"><g><svg viewBox="0 0 544.2679493872541 165.03058031079718" height="119.92786861326633" width="395.52"><g transform="matrix(1,0,0,1,148.74794938725412,22.80813374772957)"><svg viewBox="0 0 395.52 119.41431281533804" height="119.41431281533804" width="395.52"><g id="textblocktransform"><svg viewBox="0 0 395.52 119.41431281533804" height="119.41431281533804" width="395.52" id="textblock"><g><svg viewBox="0 0 395.52 119.41431281533804" height="119.41431281533804" width="395.52"><g transform="matrix(1,0,0,1,0,0)"><svg width="395.52" viewBox="3.42 -36.04 120.96 36.53" height="119.41431281533804" data-palette-color="#398378"><path d="M16.19-26.56L16.19-22.36Q15.16-22.53 13.96-22.53L13.96-22.53Q9.52-22.53 7.93-18.75L7.93-18.75 7.93 0 3.42 0 3.42-26.42 7.81-26.42 7.89-23.36Q10.11-26.9 14.18-26.9L14.18-26.9Q15.5-26.9 16.19-26.56L16.19-26.56ZM45.6-35.55L45.6-31.69 34.18-31.69 34.18 0 29.51 0 29.51-31.69 18.11-31.69 18.11-35.55 45.6-35.55ZM61.1-26.56L61.1-22.36Q60.08-22.53 58.88-22.53L58.88-22.53Q54.44-22.53 52.85-18.75L52.85-18.75 52.85 0 48.33 0 48.33-26.42 52.73-26.42 52.8-23.36Q55.02-26.9 59.1-26.9L59.1-26.9Q60.42-26.9 61.1-26.56L61.1-26.56ZM85.32 0L80.58 0Q80.19-0.78 79.95-2.78L79.95-2.78Q76.8 0.49 72.43 0.49L72.43 0.49Q68.52 0.49 66.02-1.72 63.52-3.93 63.52-7.32L63.52-7.32Q63.52-11.45 66.66-13.73 69.79-16.02 75.48-16.02L75.48-16.02 79.88-16.02 79.88-18.09Q79.88-20.46 78.46-21.86 77.04-23.27 74.28-23.27L74.28-23.27Q71.87-23.27 70.23-22.05 68.6-20.83 68.6-19.09L68.6-19.09 64.06-19.09Q64.06-21.07 65.46-22.91 66.86-24.76 69.27-25.83 71.67-26.9 74.55-26.9L74.55-26.9Q79.12-26.9 81.71-24.62 84.29-22.34 84.39-18.33L84.39-18.33 84.39-6.18Q84.39-2.54 85.32-0.39L85.32-0.39 85.32 0ZM73.09-3.44L73.09-3.44Q75.21-3.44 77.12-4.54 79.02-5.64 79.88-7.4L79.88-7.4 79.88-12.82 76.34-12.82Q68.03-12.82 68.03-7.96L68.03-7.96Q68.03-5.83 69.45-4.64 70.87-3.44 73.09-3.44ZM96.38-26.42L96.38 0 91.86 0 91.86-26.42 96.38-26.42ZM91.49-33.42L91.49-33.42Q91.49-34.52 92.17-35.28 92.84-36.04 94.16-36.04 95.47-36.04 96.16-35.28 96.84-34.52 96.84-33.42 96.84-32.32 96.16-31.59 95.47-30.86 94.16-30.86 92.84-30.86 92.17-31.59 91.49-32.32 91.49-33.42ZM103.6-26.42L107.87-26.42 108.02-23.1Q111.05-26.9 115.93-26.9L115.93-26.9Q124.3-26.9 124.38-17.46L124.38-17.46 124.38 0 119.86 0 119.86-17.48Q119.84-20.34 118.55-21.7 117.27-23.07 114.56-23.07L114.56-23.07Q112.37-23.07 110.71-21.9 109.05-20.73 108.12-18.82L108.12-18.82 108.12 0 103.6 0 103.6-26.42Z" opacity="1" transform="matrix(1,0,0,1,0,0)" fill="#398378" class="wordmark-text-0" data-fill-palette-color="primary" id="text-0"></path></svg></g></svg></g></svg></g></svg></g><g><svg viewBox="0 0 120.55709607506037 165.03058031079718" height="165.03058031079718" width="120.55709607506037"><g><svg xmlns="http://www.w3.org/2000/svg" xmlns:xlink="http://www.w3.org/1999/xlink" version="1.1" x="8" y="0" viewBox="24.27478350918217 11.5 49.734612981635664 78.5" enable-background="new 0 0 100 100" xml:space="preserve" height="165.03058031079718" width="104.55709607506037" class="icon-icon-0" data-fill-palette-color="accent" id="icon-0"><path d="M70.835 70.092c2.112-2.174 3.256-5.11 3.17-8.141l-1.076-37.847C72.729 17.086 66.982 11.5 59.961 11.5H49.143 38.324c-7.021 0-12.769 5.586-12.968 12.604L24.279 61.951c-0.086 3.03 1.058 5.967 3.17 8.141 0.762 0.783 1.629 1.439 2.565 1.964L25.105 90h7.258l1.869-6.833h29.821L65.922 90h7.258l-4.909-17.945C69.207 71.53 70.073 70.875 70.835 70.092zM62.814 67.406c-3.103 0-5.619-2.516-5.619-5.619s2.517-5.617 5.619-5.617c3.104 0 5.618 2.514 5.619 5.617S65.918 67.406 62.814 67.406zM42.025 17.136c0-1.062 0.861-1.923 1.923-1.923h10.575c1.062 0 1.923 0.861 1.923 1.923v0.154c0 1.062-0.861 1.923-1.923 1.923h-10.575c-1.062 0-1.923-0.861-1.923-1.923V17.136zM30.998 26.768c0.084-2.146 1.849-3.843 3.997-3.843h28.858c2.148 0 3.913 1.697 3.997 3.844l0.514 13.164c0.043 1.087-0.359 2.145-1.113 2.928s-1.795 1.228-2.883 1.228H34.479c-1.089 0-2.13-0.443-2.883-1.228s-1.156-1.842-1.114-2.929L30.998 26.768zM35.47 56.17c3.104 0 5.619 2.514 5.619 5.617s-2.516 5.619-5.619 5.619-5.618-2.516-5.618-5.619S32.366 56.17 35.47 56.17zM35.326 79.167l1.552-5.675h24.529l1.552 5.675H35.326z" fill="#31c48d" data-fill-palette-color="accent"></path></svg></g></svg></g></svg></g><defs></defs></svg><rect width="395.52" height="119.92786861326633" fill="none" stroke="none" visibility="hidden"></rect></g></svg></g></svg>