<svg xmlns="http://www.w3.org/2000/svg" version="1.1" xmlns:xlink="http://www.w3.org/1999/xlink" xmlns:svgjs="http://svgjs.dev/svgjs" width="1500" height="1500" viewBox="0 0 1500 1500"><rect width="1500" height="1500" fill="#ffffff"></rect><g transform="matrix(0.6666666666666666,0,0,0.6666666666666666,249.39453546126168,595.6143423098973)"><svg viewBox="0 0 396 122" data-background-color="#ffffff" preserveAspectRatio="xMidYMid meet" height="462" width="1500" xmlns="http://www.w3.org/2000/svg" xmlns:xlink="http://www.w3.org/1999/xlink"><g id="tight-bounds" transform="matrix(1,0,0,1,0.24023604265966014,0.15276051361209397)"><svg viewBox="0 0 395.52 121.69447897277583" height="121.69447897277583" width="395.52"><g><svg viewBox="0 0 581.7591717145114 178.99696422287388" height="121.69447897277583" width="395.52"><g><rect width="11.680268421480351" height="155.42428152492667" x="143.98228438863217" y="11.786341348973608" fill="#68a855" opacity="1" stroke-width="0" stroke="transparent" fill-opacity="1" class="rect-qz-0" data-fill-palette-color="primary" rx="1%" id="qz-0" data-palette-color="#68a855"></rect></g><g transform="matrix(1,0,0,1,186.23917171451134,24.738364809384166)"><svg viewBox="0 0 395.52 129.52023460410555" height="129.52023460410555" width="395.52"><g id="textblocktransform"><svg viewBox="0 0 395.52 129.52023460410555" height="129.52023460410555" width="395.52" id="textblock"><g><svg viewBox="0 0 395.52 129.52023460410555" height="129.52023460410555" width="395.52"><g transform="matrix(1,0,0,1,0,0)"><svg width="395.52" viewBox="4 -33.15 102.29 33.5" height="129.52023460410555" data-palette-color="#68a855"><path d="M14.5-22.95Q15.1-22.95 15.8-22.85L15.8-22.85 15.8-19 15.35-18.85Q14.5-19.1 13.5-19.1L13.5-19.1Q11.85-19.1 10.48-17.78 9.1-16.45 7.75-13.55L7.75-13.55 7.7-10.05 7.95 0 4 0 4.25-9.7 4.05-22.65 7.8-23 7.75-18.3 8.05-18.3Q9.45-20.8 11.15-21.88 12.85-22.95 14.5-22.95L14.5-22.95ZM35.1-32.05L35.4-31.65 35.1-28.55 29.5-28.85 26.25-28.85 26.1-10 26.25 0 22.2 0 22.5-9.65 22.25-28.85 19-28.85 13.3-28.55 13.05-28.95 13.35-32.05 35.1-32.05ZM47.75-22.95Q48.35-22.95 49.05-22.85L49.05-22.85 49.05-19 48.6-18.85Q47.75-19.1 46.75-19.1L46.75-19.1Q45.1-19.1 43.72-17.78 42.35-16.45 41-13.55L41-13.55 40.95-10.05 41.2 0 37.25 0 37.5-9.7 37.3-22.65 41.05-23 41-18.3 41.3-18.3Q42.7-20.8 44.4-21.88 46.1-22.95 47.75-22.95L47.75-22.95ZM60.44-23.3Q63.69-23.3 65.57-21.7 67.44-20.1 67.44-17.3L67.44-17.3Q67.44-16.45 67.14-11.15L67.14-11.15Q66.84-5.85 66.84-4.95L66.84-4.95Q66.84-3.85 67.19-3.43 67.54-3 68.39-3L68.39-3Q69.14-3 70.09-3.3L70.09-3.3 70.49-2.95 70.09-0.7Q68.64 0.15 67.24 0.3L67.24 0.3Q65.69 0.15 64.77-0.8 63.84-1.75 63.79-3.4L63.79-3.4 63.44-3.4Q60.74-0.65 58.09 0.35L58.09 0.35Q54.74 0.35 52.87-1.33 50.99-3 50.99-5.9L50.99-5.9Q50.99-8.1 52.17-9.4 53.34-10.7 55.64-11.25L55.64-11.25 63.74-13.15 63.79-16.4Q63.79-18.35 62.77-19.4 61.74-20.45 59.84-20.45L59.84-20.45Q58.14-20.45 56.44-19.65 54.74-18.85 52.79-17.15L52.79-17.15 52.39-17.35 51.89-20.2Q56.04-23.3 60.44-23.3L60.44-23.3ZM63.69-10.6L56.44-8.85Q55.44-8.55 54.99-8.03 54.54-7.5 54.54-6.45L54.54-6.45Q54.54-4.8 55.47-3.88 56.39-2.95 57.94-2.95L57.94-2.95Q60.69-2.95 63.54-6.5L63.54-6.5 63.69-10.6ZM76.04 0L76.24-9.7 76.09-22.65 79.94-23 79.84-10.05 79.94 0 76.04 0ZM78.09-33.15Q79.09-33.15 79.69-32.55 80.29-31.95 80.29-30.9L80.29-30.9Q80.29-29.8 79.67-29.15 79.04-28.5 77.94-28.5L77.94-28.5Q76.89-28.5 76.32-29.1 75.74-29.7 75.74-30.8L75.74-30.8Q75.74-31.85 76.37-32.5 76.99-33.15 78.09-33.15L78.09-33.15ZM102.29 0L102.54-15.55Q102.59-17.6 101.59-18.75 100.59-19.9 98.64-19.9L98.64-19.9Q95.49-19.9 91.84-16.35L91.84-16.35 91.84-10.05 92.04 0 88.09 0 88.34-9.7 88.14-22.65 91.89-23 91.89-19.65 92.19-19.65Q95.29-22.4 98.54-23.2L98.54-23.2Q102.29-23.2 104.26-21.45 106.24-19.7 106.19-16.45L106.19-16.45 106.09-9.95 106.29 0 102.29 0Z" opacity="1" transform="matrix(1,0,0,1,0,0)" fill="#68a855" class="wordmark-text-0" data-fill-palette-color="primary" id="text-0"></path></svg></g></svg></g></svg></g></svg></g><g><svg viewBox="0 0 113.40566548423335 178.99696422287388" height="178.99696422287388" width="113.40566548423335"><g><svg xmlns="http://www.w3.org/2000/svg" xmlns:xlink="http://www.w3.org/1999/xlink" version="1.1" x="0" y="0" viewBox="24.27478350918217 11.5 49.734612981635664 78.5" enable-background="new 0 0 100 100" xml:space="preserve" height="178.99696422287388" width="113.40566548423335" class="icon-icon-0" data-fill-palette-color="accent" id="icon-0"><path d="M70.835 70.092c2.112-2.174 3.256-5.11 3.17-8.141l-1.076-37.847C72.729 17.086 66.982 11.5 59.961 11.5H49.143 38.324c-7.021 0-12.769 5.586-12.968 12.604L24.279 61.951c-0.086 3.03 1.058 5.967 3.17 8.141 0.762 0.783 1.629 1.439 2.565 1.964L25.105 90h7.258l1.869-6.833h29.821L65.922 90h7.258l-4.909-17.945C69.207 71.53 70.073 70.875 70.835 70.092zM62.814 67.406c-3.103 0-5.619-2.516-5.619-5.619s2.517-5.617 5.619-5.617c3.104 0 5.618 2.514 5.619 5.617S65.918 67.406 62.814 67.406zM42.025 17.136c0-1.062 0.861-1.923 1.923-1.923h10.575c1.062 0 1.923 0.861 1.923 1.923v0.154c0 1.062-0.861 1.923-1.923 1.923h-10.575c-1.062 0-1.923-0.861-1.923-1.923V17.136zM30.998 26.768c0.084-2.146 1.849-3.843 3.997-3.843h28.858c2.148 0 3.913 1.697 3.997 3.844l0.514 13.164c0.043 1.087-0.359 2.145-1.113 2.928s-1.795 1.228-2.883 1.228H34.479c-1.089 0-2.13-0.443-2.883-1.228s-1.156-1.842-1.114-2.929L30.998 26.768zM35.47 56.17c3.104 0 5.619 2.514 5.619 5.617s-2.516 5.619-5.619 5.619-5.618-2.516-5.618-5.619S32.366 56.17 35.47 56.17zM35.326 79.167l1.552-5.675h24.529l1.552 5.675H35.326z" fill="#68a855" data-fill-palette-color="accent"></path></svg></g></svg></g></svg></g><defs></defs></svg><rect width="395.52" height="121.69447897277583" fill="none" stroke="none" visibility="hidden"></rect></g></svg></g></svg>